<?xml version="1.0" standalone="no"?>
<!DOCTYPE svg PUBLIC "-//W3C//DTD SVG 20010904//EN"
 "http://www.w3.org/TR/2001/REC-SVG-20010904/DTD/svg10.dtd">
<svg version="1.0" xmlns="http://www.w3.org/2000/svg"
 width="512.000000pt" height="512.000000pt" viewBox="0 0 512.000000 512.000000"
 preserveAspectRatio="xMidYMid meet">
<metadata>
Created by potrace 1.11, written by Peter Selinger 2001-2013
</metadata>
<g transform="translate(0.000000,512.000000) scale(0.100000,-0.100000)"
fill="#000000" stroke="none">
<path d="M2230 5104 c-996 -127 -1833 -835 -2123 -1794 -78 -256 -107 -462
-107 -750 0 -491 116 -914 363 -1325 404 -672 1099 -1123 1877 -1220 162 -20
478 -20 640 0 1001 124 1842 831 2133 1795 78 256 107 462 107 750 0 491 -116
914 -363 1325 -404 672 -1099 1123 -1877 1220 -153 19 -501 18 -650 -1z m1955
-2534 c0 -661 -2 -1205 -5 -1209 -3 -3 -34 -7 -70 -7 -59 -1 -235 -10 -365
-18 -27 -2 -72 -7 -100 -11 -27 -4 -63 -8 -80 -10 -16 -2 -46 -7 -65 -10 -47
-9 -90 -16 -120 -20 -14 -2 -25 -4 -25 -5 0 -2 -22 -7 -69 -15 -22 -4 -50 -11
-63 -16 -13 -5 -23 -6 -23 -3 0 4 -6 1 -13 -5 -8 -6 -17 -8 -20 -4 -4 3 -13 1
-20 -5 -8 -7 -17 -9 -20 -5 -4 3 -7 2 -7 -3 0 -5 -8 -10 -17 -11 -18 -1 -56
-10 -60 -13 -2 -2 -7 -4 -13 -5 -5 -1 -12 -3 -15 -4 -3 0 -8 -2 -12 -3 -5 -1
-32 -12 -60 -25 -29 -12 -53 -20 -53 -17 0 3 -13 -4 -29 -15 -15 -11 -31 -18
-35 -14 -3 3 -6 1 -6 -6 0 -7 -4 -10 -9 -6 -5 3 -16 -1 -24 -9 -8 -8 -17 -12
-21 -9 -3 4 -6 0 -6 -7 0 -7 -3 -10 -7 -7 -3 4 -15 0 -25 -10 -10 -9 -18 -12
-18 -8 0 5 -7 0 -16 -11 -8 -10 -13 -12 -9 -4 4 8 -1 6 -9 -4 -9 -11 -16 -16
-16 -10 0 5 -5 1 -11 -9 -6 -9 -14 -15 -19 -12 -5 3 -14 -4 -20 -15 -6 -11
-15 -18 -21 -15 -5 4 -9 1 -9 -4 0 -19 -28 -12 -53 13 -14 14 -28 22 -31 19
-3 -3 -8 2 -12 11 -3 9 -10 14 -14 11 -5 -3 -21 6 -36 20 -14 13 -30 22 -35
19 -5 -3 -9 -1 -9 5 0 9 -27 22 -57 27 -7 1 -20 9 -29 18 -8 9 -20 14 -25 11
-5 -4 -9 -1 -9 5 0 7 -7 10 -15 6 -8 -3 -15 -1 -15 4 0 6 -3 9 -7 8 -5 -1 -18
3 -29 10 -12 6 -24 8 -28 5 -3 -3 -6 -1 -6 6 0 8 -7 11 -15 7 -8 -3 -15 -2
-15 3 0 4 -6 8 -12 9 -23 2 -43 8 -66 20 -12 7 -22 10 -22 8 0 -3 -11 -1 -25
4 -14 5 -36 12 -48 14 -54 12 -68 15 -76 20 -4 3 -23 8 -42 10 -41 6 -74 14
-74 17 0 1 -13 3 -30 4 -16 2 -30 4 -30 5 0 2 -11 4 -25 6 -14 2 -38 5 -55 8
-40 7 -111 17 -160 21 -22 3 -62 7 -90 9 -70 7 -264 18 -360 20 l-80 2 0 1213
0 1214 160 -8 c261 -12 372 -22 540 -50 22 -4 49 -9 60 -10 11 -2 20 -4 20 -5
0 -1 11 -3 25 -6 74 -13 99 -17 118 -23 1 -1 4 -1 7 -2 2 0 19 -5 37 -10 18
-6 44 -12 58 -15 14 -2 32 -7 40 -11 8 -3 17 -7 20 -8 12 -3 86 -27 100 -32 8
-4 18 -7 23 -8 4 -2 10 -4 15 -5 4 -1 10 -2 15 -1 4 0 7 -3 7 -9 0 -5 7 -10
15 -10 9 0 33 -9 54 -20 21 -10 41 -16 45 -13 3 4 6 1 6 -6 0 -7 5 -9 10 -6 6
3 10 1 10 -5 0 -6 5 -8 10 -5 6 3 10 1 10 -5 0 -6 5 -8 10 -5 6 3 10 2 10 -2
0 -5 9 -14 21 -21 13 -9 18 -9 14 -2 -6 10 61 -36 103 -71 6 -5 12 -7 12 -3 0
4 8 -3 19 -15 20 -23 45 -20 55 5 3 9 10 13 15 9 6 -3 13 0 18 8 4 7 20 18 36
24 15 7 27 17 27 23 0 5 9 10 20 10 11 0 23 7 26 15 4 8 10 12 15 9 5 -3 9 0
9 6 0 6 4 9 9 6 5 -3 14 1 21 9 7 8 16 12 21 9 5 -3 9 0 9 6 0 6 5 8 10 5 6
-3 10 -1 10 4 0 6 3 10 8 9 15 -3 62 15 62 24 0 6 7 8 15 4 8 -3 15 0 15 6 0
6 3 8 7 5 3 -4 12 -2 20 4 7 6 13 8 13 4 0 -4 7 -2 15 5 8 7 15 9 15 5 0 -4 6
-2 13 4 8 6 24 13 38 15 13 3 26 5 29 6 3 2 8 2 13 1 4 0 7 4 7 10 0 6 6 9 14
6 8 -3 17 -3 20 1 4 3 12 7 19 8 7 2 23 6 37 9 14 3 32 8 40 10 8 2 15 4 15 5
0 1 9 3 20 5 71 11 93 15 122 24 17 5 34 7 37 4 2 -3 10 -2 17 3 7 4 27 9 43
10 17 2 45 6 61 9 17 3 53 8 80 11 28 3 66 7 85 9 37 5 78 8 285 20 72 4 132
9 133 11 2 1 14 -1 25 -5 l22 -8 0 -1203z"/>
<path d="M1340 2561 c0 -650 3 -821 13 -822 6 0 21 -2 32 -4 11 -2 45 -6 75
-9 301 -30 634 -117 845 -220 28 -13 52 -22 55 -20 2 3 4 370 5 816 0 791 -1
812 -19 830 -11 10 -23 18 -28 18 -4 0 -50 18 -101 39 -163 70 -402 134 -601
161 -41 6 -83 12 -93 15 -11 2 -56 6 -101 10 l-82 7 0 -821z"/>
<path d="M3699 3376 c-2 -2 -33 -7 -69 -10 -58 -5 -93 -10 -155 -21 -251 -43
-477 -110 -645 -191 l-65 -31 -1 -822 c0 -451 1 -821 2 -821 0 0 40 18 88 40
48 22 91 38 97 35 5 -4 9 -2 9 3 0 8 153 62 216 77 11 2 66 15 124 29 58 14
123 27 145 31 57 8 329 44 337 45 4 0 7 369 7 820 l0 820 -43 0 c-23 0 -45 -2
-47 -4z"/>
</g>
</svg>
